<?xml version="1.0" encoding="UTF-8" standalone="no"?>
<!DOCTYPE svg PUBLIC "-//W3C//DTD SVG 1.1//EN"
 "http://www.w3.org/Graphics/SVG/1.1/DTD/svg11.dtd">
<!-- Generated by graphviz version 2.38.0 (20140413.2041)
 -->
<!-- Title: G Pages: 1 -->
<svg width="1090pt" height="225pt"
 viewBox="0.00 0.00 1090.20 225.20" xmlns="http://www.w3.org/2000/svg" xmlns:xlink="http://www.w3.org/1999/xlink">
<g id="graph0" class="graph" transform="scale(1 1) rotate(0) translate(21.6 203.6)">
<title>G</title>
<polygon fill="#111111" stroke="none" points="-21.6,21.6 -21.6,-203.6 1068.6,-203.6 1068.6,21.6 -21.6,21.6"/>
<!-- scripts/BattlePageManager.ts -->
<g id="node1" class="node"><title>scripts/BattlePageManager.ts</title>
<path fill="none" stroke="#c6c5fe" d="M493.333,-104C493.333,-104 306.667,-104 306.667,-104 302.833,-104 299,-100.167 299,-96.3333 299,-96.3333 299,-88.6667 299,-88.6667 299,-84.8333 302.833,-81 306.667,-81 306.667,-81 493.333,-81 493.333,-81 497.167,-81 501,-84.8333 501,-88.6667 501,-88.6667 501,-96.3333 501,-96.3333 501,-100.167 497.167,-104 493.333,-104"/>
<text text-anchor="middle" x="400" y="-88.8" font-family="Arial" font-size="14.00" fill="#c6c5fe">scripts/BattlePageManager.ts</text>
</g>
<!-- scripts/data/HeroRegistry.ts -->
<g id="node2" class="node"><title>scripts/data/HeroRegistry.ts</title>
<path fill="none" stroke="#cfffac" d="M1035.83,-144C1035.83,-144 860.167,-144 860.167,-144 856.333,-144 852.5,-140.167 852.5,-136.333 852.5,-136.333 852.5,-128.667 852.5,-128.667 852.5,-124.833 856.333,-121 860.167,-121 860.167,-121 1035.83,-121 1035.83,-121 1039.67,-121 1043.5,-124.833 1043.5,-128.667 1043.5,-128.667 1043.5,-136.333 1043.5,-136.333 1043.5,-140.167 1039.67,-144 1035.83,-144"/>
<text text-anchor="middle" x="948" y="-128.8" font-family="Arial" font-size="14.00" fill="#cfffac">scripts/data/HeroRegistry.ts</text>
</g>
<!-- scripts/BattlePageManager.ts&#45;&gt;scripts/data/HeroRegistry.ts -->
<g id="edge1" class="edge"><title>scripts/BattlePageManager.ts&#45;&gt;scripts/data/HeroRegistry.ts</title>
<path fill="none" stroke="#757575" d="M501.282,-102.67C515.939,-104.034 530.855,-105.355 545,-106.5 645.777,-114.656 760.932,-121.892 842.089,-126.646"/>
<polygon fill="#757575" stroke="#757575" points="842.125,-130.154 852.311,-127.242 842.532,-123.165 842.125,-130.154"/>
</g>
<!-- scripts/data/PlayerData.ts -->
<g id="node3" class="node"><title>scripts/data/PlayerData.ts</title>
<path fill="none" stroke="#c6c5fe" d="M759.833,-64C759.833,-64 598.167,-64 598.167,-64 594.333,-64 590.5,-60.1667 590.5,-56.3333 590.5,-56.3333 590.5,-48.6667 590.5,-48.6667 590.5,-44.8333 594.333,-41 598.167,-41 598.167,-41 759.833,-41 759.833,-41 763.667,-41 767.5,-44.8333 767.5,-48.6667 767.5,-48.6667 767.5,-56.3333 767.5,-56.3333 767.5,-60.1667 763.667,-64 759.833,-64"/>
<text text-anchor="middle" x="679" y="-48.8" font-family="Arial" font-size="14.00" fill="#c6c5fe">scripts/data/PlayerData.ts</text>
</g>
<!-- scripts/BattlePageManager.ts&#45;&gt;scripts/data/PlayerData.ts -->
<g id="edge2" class="edge"><title>scripts/BattlePageManager.ts&#45;&gt;scripts/data/PlayerData.ts</title>
<path fill="none" stroke="#757575" d="M480.748,-80.984C514.351,-76.1316 553.618,-70.4613 588.231,-65.463"/>
<polygon fill="#757575" stroke="#757575" points="588.938,-68.8973 598.335,-64.0039 587.938,-61.9692 588.938,-68.8973"/>
</g>
<!-- scripts/data/StageRegistry.ts -->
<g id="node4" class="node"><title>scripts/data/StageRegistry.ts</title>
<path fill="none" stroke="#cfffac" d="M1039.33,-103C1039.33,-103 856.667,-103 856.667,-103 852.833,-103 849,-99.1667 849,-95.3333 849,-95.3333 849,-87.6667 849,-87.6667 849,-83.8333 852.833,-80 856.667,-80 856.667,-80 1039.33,-80 1039.33,-80 1043.17,-80 1047,-83.8333 1047,-87.6667 1047,-87.6667 1047,-95.3333 1047,-95.3333 1047,-99.1667 1043.17,-103 1039.33,-103"/>
<text text-anchor="middle" x="948" y="-87.8" font-family="Arial" font-size="14.00" fill="#cfffac">scripts/data/StageRegistry.ts</text>
</g>
<!-- scripts/BattlePageManager.ts&#45;&gt;scripts/data/StageRegistry.ts -->
<g id="edge3" class="edge"><title>scripts/BattlePageManager.ts&#45;&gt;scripts/data/StageRegistry.ts</title>
<path fill="none" stroke="#757575" d="M501.145,-92.3166C596.74,-92.1415 740.371,-91.8784 838.613,-91.6985"/>
<polygon fill="#757575" stroke="#757575" points="838.875,-95.1981 848.869,-91.6797 838.863,-88.1981 838.875,-95.1981"/>
</g>
<!-- scripts/组件/HeroController.ts -->
<g id="node5" class="node"><title>scripts/组件/HeroController.ts</title>
<path fill="none" stroke="#c6c5fe" d="M770.833,-182C770.833,-182 587.167,-182 587.167,-182 583.333,-182 579.5,-178.167 579.5,-174.333 579.5,-174.333 579.5,-166.667 579.5,-166.667 579.5,-162.833 583.333,-159 587.167,-159 587.167,-159 770.833,-159 770.833,-159 774.667,-159 778.5,-162.833 778.5,-166.667 778.5,-166.667 778.5,-174.333 778.5,-174.333 778.5,-178.167 774.667,-182 770.833,-182"/>
<text text-anchor="middle" x="679" y="-166.8" font-family="Arial" font-size="14.00" fill="#c6c5fe">scripts/组件/HeroController.ts</text>
</g>
<!-- scripts/BattlePageManager.ts&#45;&gt;scripts/组件/HeroController.ts -->
<g id="edge4" class="edge"><title>scripts/BattlePageManager.ts&#45;&gt;scripts/组件/HeroController.ts</title>
<path fill="none" stroke="#757575" d="M429.001,-104.063C457.72,-115.577 503.882,-133.129 545,-144.5 561.966,-149.192 580.374,-153.362 597.934,-156.914"/>
<polygon fill="#757575" stroke="#757575" points="597.668,-160.429 608.157,-158.934 599.025,-153.562 597.668,-160.429"/>
</g>
<!-- scripts/data/PlayerData.ts&#45;&gt;scripts/data/HeroRegistry.ts -->
<g id="edge9" class="edge"><title>scripts/data/PlayerData.ts&#45;&gt;scripts/data/HeroRegistry.ts</title>
<path fill="none" stroke="#757575" d="M709.559,-64.0829C743.016,-76.8953 799.33,-97.5666 849,-111.5 858.139,-114.064 867.833,-116.488 877.431,-118.717"/>
<polygon fill="#757575" stroke="#757575" points="876.844,-122.173 887.37,-120.966 878.389,-115.345 876.844,-122.173"/>
</g>
<!-- scripts/data/PlayerData.ts&#45;&gt;scripts/data/StageRegistry.ts -->
<g id="edge11" class="edge"><title>scripts/data/PlayerData.ts&#45;&gt;scripts/data/StageRegistry.ts</title>
<path fill="none" stroke="#757575" d="M759.025,-64.043C790.106,-68.583 825.943,-73.8175 857.936,-78.4907"/>
<polygon fill="#757575" stroke="#757575" points="857.777,-82.0045 868.178,-79.9866 858.789,-75.078 857.777,-82.0045"/>
</g>
<!-- scripts/data/PlayerStorage.ts -->
<g id="node10" class="node"><title>scripts/data/PlayerStorage.ts</title>
<path fill="none" stroke="#cfffac" d="M1039.33,-62C1039.33,-62 856.667,-62 856.667,-62 852.833,-62 849,-58.1667 849,-54.3333 849,-54.3333 849,-46.6667 849,-46.6667 849,-42.8333 852.833,-39 856.667,-39 856.667,-39 1039.33,-39 1039.33,-39 1043.17,-39 1047,-42.8333 1047,-46.6667 1047,-46.6667 1047,-54.3333 1047,-54.3333 1047,-58.1667 1043.17,-62 1039.33,-62"/>
<text text-anchor="middle" x="948" y="-46.8" font-family="Arial" font-size="14.00" fill="#cfffac">scripts/data/PlayerStorage.ts</text>
</g>
<!-- scripts/data/PlayerData.ts&#45;&gt;scripts/data/PlayerStorage.ts -->
<g id="edge10" class="edge"><title>scripts/data/PlayerData.ts&#45;&gt;scripts/data/PlayerStorage.ts</title>
<path fill="none" stroke="#757575" d="M767.796,-51.8424C790.537,-51.672 815.292,-51.4866 838.94,-51.3094"/>
<polygon fill="#757575" stroke="#757575" points="839.025,-54.809 848.998,-51.2341 838.972,-47.8092 839.025,-54.809"/>
</g>
<!-- scripts/组件/HeroController.ts&#45;&gt;scripts/data/HeroRegistry.ts -->
<g id="edge12" class="edge"><title>scripts/组件/HeroController.ts&#45;&gt;scripts/data/HeroRegistry.ts</title>
<path fill="none" stroke="#757575" d="M760.833,-158.996C790.887,-154.718 825.182,-149.837 856.079,-145.44"/>
<polygon fill="#757575" stroke="#757575" points="856.574,-148.905 865.981,-144.031 855.588,-141.975 856.574,-148.905"/>
</g>
<!-- scripts/BlackShop/BlackShop.ts -->
<g id="node6" class="node"><title>scripts/BlackShop/BlackShop.ts</title>
<path fill="none" stroke="#c6c5fe" d="M501.333,-24C501.333,-24 298.667,-24 298.667,-24 294.833,-24 291,-20.1667 291,-16.3333 291,-16.3333 291,-8.66667 291,-8.66667 291,-4.83333 294.833,-1 298.667,-1 298.667,-1 501.333,-1 501.333,-1 505.167,-1 509,-4.83333 509,-8.66667 509,-8.66667 509,-16.3333 509,-16.3333 509,-20.1667 505.167,-24 501.333,-24"/>
<text text-anchor="middle" x="400" y="-8.8" font-family="Arial" font-size="14.00" fill="#c6c5fe">scripts/BlackShop/BlackShop.ts</text>
</g>
<!-- scripts/BlackShop/BlackShopStorage.ts -->
<g id="node7" class="node"><title>scripts/BlackShop/BlackShopStorage.ts</title>
<path fill="none" stroke="#cfffac" d="M805.333,-23C805.333,-23 552.667,-23 552.667,-23 548.833,-23 545,-19.1667 545,-15.3333 545,-15.3333 545,-7.66667 545,-7.66667 545,-3.83333 548.833,-0 552.667,-0 552.667,-0 805.333,-0 805.333,-0 809.167,-0 813,-3.83333 813,-7.66667 813,-7.66667 813,-15.3333 813,-15.3333 813,-19.1667 809.167,-23 805.333,-23"/>
<text text-anchor="middle" x="679" y="-7.8" font-family="Arial" font-size="14.00" fill="#cfffac">scripts/BlackShop/BlackShopStorage.ts</text>
</g>
<!-- scripts/BlackShop/BlackShop.ts&#45;&gt;scripts/BlackShop/BlackShopStorage.ts -->
<g id="edge5" class="edge"><title>scripts/BlackShop/BlackShop.ts&#45;&gt;scripts/BlackShop/BlackShopStorage.ts</title>
<path fill="none" stroke="#757575" d="M509.286,-12.1091C517.683,-12.0788 526.237,-12.0479 534.815,-12.0169"/>
<polygon fill="#757575" stroke="#757575" points="534.9,-15.5167 544.887,-11.9806 534.874,-8.51677 534.9,-15.5167"/>
</g>
<!-- scripts/HomePageRouter.ts -->
<g id="node8" class="node"><title>scripts/HomePageRouter.ts</title>
<path fill="none" stroke="#c6c5fe" d="M215.833,-64C215.833,-64 39.1667,-64 39.1667,-64 35.3333,-64 31.5,-60.1667 31.5,-56.3333 31.5,-56.3333 31.5,-48.6667 31.5,-48.6667 31.5,-44.8333 35.3333,-41 39.1667,-41 39.1667,-41 215.833,-41 215.833,-41 219.667,-41 223.5,-44.8333 223.5,-48.6667 223.5,-48.6667 223.5,-56.3333 223.5,-56.3333 223.5,-60.1667 219.667,-64 215.833,-64"/>
<text text-anchor="middle" x="127.5" y="-48.8" font-family="Arial" font-size="14.00" fill="#c6c5fe">scripts/HomePageRouter.ts</text>
</g>
<!-- scripts/HomePageRouter.ts&#45;&gt;scripts/BattlePageManager.ts -->
<g id="edge6" class="edge"><title>scripts/HomePageRouter.ts&#45;&gt;scripts/BattlePageManager.ts</title>
<path fill="none" stroke="#757575" d="M206.377,-64.016C239.05,-68.8476 277.208,-74.49 310.902,-79.4726"/>
<polygon fill="#757575" stroke="#757575" points="310.8,-82.9955 321.205,-80.9961 311.824,-76.0708 310.8,-82.9955"/>
</g>
<!-- scripts/HomePageRouter.ts&#45;&gt;scripts/data/PlayerData.ts -->
<g id="edge8" class="edge"><title>scripts/HomePageRouter.ts&#45;&gt;scripts/data/PlayerData.ts</title>
<path fill="none" stroke="#757575" d="M223.588,-52.5C323.372,-52.5 479.457,-52.5 580.235,-52.5"/>
<polygon fill="#757575" stroke="#757575" points="580.418,-56.0001 590.418,-52.5 580.417,-49.0001 580.418,-56.0001"/>
</g>
<!-- scripts/HomePageRouter.ts&#45;&gt;scripts/BlackShop/BlackShop.ts -->
<g id="edge7" class="edge"><title>scripts/HomePageRouter.ts&#45;&gt;scripts/BlackShop/BlackShop.ts</title>
<path fill="none" stroke="#757575" d="M206.377,-40.984C239.05,-36.1524 277.208,-30.51 310.902,-25.5274"/>
<polygon fill="#757575" stroke="#757575" points="311.824,-28.9292 321.205,-24.0039 310.8,-22.0045 311.824,-28.9292"/>
</g>
<!-- scripts/Palette.ts -->
<g id="node9" class="node"><title>scripts/Palette.ts</title>
<path fill="none" stroke="#cfffac" d="M180.833,-105C180.833,-105 74.1667,-105 74.1667,-105 70.3333,-105 66.5,-101.167 66.5,-97.3333 66.5,-97.3333 66.5,-89.6667 66.5,-89.6667 66.5,-85.8333 70.3333,-82 74.1667,-82 74.1667,-82 180.833,-82 180.833,-82 184.667,-82 188.5,-85.8333 188.5,-89.6667 188.5,-89.6667 188.5,-97.3333 188.5,-97.3333 188.5,-101.167 184.667,-105 180.833,-105"/>
<text text-anchor="middle" x="127.5" y="-89.8" font-family="Arial" font-size="14.00" fill="#cfffac">scripts/Palette.ts</text>
</g>
<!-- scripts/editor/AutoSpriteFromName.ts -->
<g id="node11" class="node"><title>scripts/editor/AutoSpriteFromName.ts</title>
<path fill="none" stroke="#cfffac" d="M247.333,-146C247.333,-146 7.66667,-146 7.66667,-146 3.83333,-146 0,-142.167 0,-138.333 0,-138.333 0,-130.667 0,-130.667 0,-126.833 3.83333,-123 7.66667,-123 7.66667,-123 247.333,-123 247.333,-123 251.167,-123 255,-126.833 255,-130.667 255,-130.667 255,-138.333 255,-138.333 255,-142.167 251.167,-146 247.333,-146"/>
<text text-anchor="middle" x="127.5" y="-130.8" font-family="Arial" font-size="14.00" fill="#cfffac">scripts/editor/AutoSpriteFromName.ts</text>
</g>
</g>
</svg>
