<?xml version="1.0" encoding="UTF-8" standalone="no"?>
<!DOCTYPE svg PUBLIC "-//W3C//DTD SVG 1.1//EN"
 "http://www.w3.org/Graphics/SVG/1.1/DTD/svg11.dtd">
<!-- Generated by graphviz version 2.38.0 (20140413.2041)
 -->
<!-- Title: G Pages: 1 -->
<svg width="760pt" height="189pt"
 viewBox="0.00 0.00 760.20 189.20" xmlns="http://www.w3.org/2000/svg" xmlns:xlink="http://www.w3.org/1999/xlink">
<g id="graph0" class="graph" transform="scale(1 1) rotate(0) translate(21.6 167.6)">
<title>G</title>
<polygon fill="#111111" stroke="none" points="-21.6,21.6 -21.6,-167.6 738.6,-167.6 738.6,21.6 -21.6,21.6"/>
<!-- scripts/BattlePageManager.ts -->
<g id="node1" class="node"><title>scripts/BattlePageManager.ts</title>
<path fill="none" stroke="#c6c5fe" d="M485.333,-23C485.333,-23 298.667,-23 298.667,-23 294.833,-23 291,-19.1667 291,-15.3333 291,-15.3333 291,-7.66667 291,-7.66667 291,-3.83333 294.833,-0 298.667,-0 298.667,-0 485.333,-0 485.333,-0 489.167,-0 493,-3.83333 493,-7.66667 493,-7.66667 493,-15.3333 493,-15.3333 493,-19.1667 489.167,-23 485.333,-23"/>
<text text-anchor="middle" x="392" y="-7.8" font-family="Arial" font-size="14.00" fill="#c6c5fe">scripts/BattlePageManager.ts</text>
</g>
<!-- scripts/HeroInfoManager.ts -->
<g id="node2" class="node"><title>scripts/HeroInfoManager.ts</title>
<path fill="none" stroke="#cfffac" d="M709.333,-23C709.333,-23 536.667,-23 536.667,-23 532.833,-23 529,-19.1667 529,-15.3333 529,-15.3333 529,-7.66667 529,-7.66667 529,-3.83333 532.833,-0 536.667,-0 536.667,-0 709.333,-0 709.333,-0 713.167,-0 717,-3.83333 717,-7.66667 717,-7.66667 717,-15.3333 717,-15.3333 717,-19.1667 713.167,-23 709.333,-23"/>
<text text-anchor="middle" x="623" y="-7.8" font-family="Arial" font-size="14.00" fill="#cfffac">scripts/HeroInfoManager.ts</text>
</g>
<!-- scripts/BattlePageManager.ts&#45;&gt;scripts/HeroInfoManager.ts -->
<g id="edge1" class="edge"><title>scripts/BattlePageManager.ts&#45;&gt;scripts/HeroInfoManager.ts</title>
<path fill="none" stroke="#757575" d="M493.11,-11.5C501.673,-11.5 510.346,-11.5 518.933,-11.5"/>
<polygon fill="#757575" stroke="#757575" points="518.961,-15.0001 528.961,-11.5 518.961,-8.0001 518.961,-15.0001"/>
</g>
<!-- scripts/HomePageRouter.ts -->
<g id="node3" class="node"><title>scripts/HomePageRouter.ts</title>
<path fill="none" stroke="#cfffac" d="M215.833,-64C215.833,-64 39.1667,-64 39.1667,-64 35.3333,-64 31.5,-60.1667 31.5,-56.3333 31.5,-56.3333 31.5,-48.6667 31.5,-48.6667 31.5,-44.8333 35.3333,-41 39.1667,-41 39.1667,-41 215.833,-41 215.833,-41 219.667,-41 223.5,-44.8333 223.5,-48.6667 223.5,-48.6667 223.5,-56.3333 223.5,-56.3333 223.5,-60.1667 219.667,-64 215.833,-64"/>
<text text-anchor="middle" x="127.5" y="-48.8" font-family="Arial" font-size="14.00" fill="#cfffac">scripts/HomePageRouter.ts</text>
</g>
<!-- scripts/data/HeroRegistry.ts -->
<g id="node4" class="node"><title>scripts/data/HeroRegistry.ts</title>
<path fill="none" stroke="#cfffac" d="M479.833,-105C479.833,-105 304.167,-105 304.167,-105 300.333,-105 296.5,-101.167 296.5,-97.3333 296.5,-97.3333 296.5,-89.6667 296.5,-89.6667 296.5,-85.8333 300.333,-82 304.167,-82 304.167,-82 479.833,-82 479.833,-82 483.667,-82 487.5,-85.8333 487.5,-89.6667 487.5,-89.6667 487.5,-97.3333 487.5,-97.3333 487.5,-101.167 483.667,-105 479.833,-105"/>
<text text-anchor="middle" x="392" y="-89.8" font-family="Arial" font-size="14.00" fill="#cfffac">scripts/data/HeroRegistry.ts</text>
</g>
<!-- scripts/data/PlayerData.ts -->
<g id="node5" class="node"><title>scripts/data/PlayerData.ts</title>
<path fill="none" stroke="#c6c5fe" d="M208.333,-105C208.333,-105 46.6667,-105 46.6667,-105 42.8333,-105 39,-101.167 39,-97.3333 39,-97.3333 39,-89.6667 39,-89.6667 39,-85.8333 42.8333,-82 46.6667,-82 46.6667,-82 208.333,-82 208.333,-82 212.167,-82 216,-85.8333 216,-89.6667 216,-89.6667 216,-97.3333 216,-97.3333 216,-101.167 212.167,-105 208.333,-105"/>
<text text-anchor="middle" x="127.5" y="-89.8" font-family="Arial" font-size="14.00" fill="#c6c5fe">scripts/data/PlayerData.ts</text>
</g>
<!-- scripts/data/PlayerData.ts&#45;&gt;scripts/data/HeroRegistry.ts -->
<g id="edge2" class="edge"><title>scripts/data/PlayerData.ts&#45;&gt;scripts/data/HeroRegistry.ts</title>
<path fill="none" stroke="#757575" d="M216.274,-93.5C238.605,-93.5 262.829,-93.5 285.925,-93.5"/>
<polygon fill="#757575" stroke="#757575" points="286.095,-97.0001 296.095,-93.5 286.095,-90.0001 286.095,-97.0001"/>
</g>
<!-- scripts/editor/AutoSpriteFromName.ts -->
<g id="node6" class="node"><title>scripts/editor/AutoSpriteFromName.ts</title>
<path fill="none" stroke="#cfffac" d="M247.333,-146C247.333,-146 7.66667,-146 7.66667,-146 3.83333,-146 0,-142.167 0,-138.333 0,-138.333 0,-130.667 0,-130.667 0,-126.833 3.83333,-123 7.66667,-123 7.66667,-123 247.333,-123 247.333,-123 251.167,-123 255,-126.833 255,-130.667 255,-130.667 255,-138.333 255,-138.333 255,-142.167 251.167,-146 247.333,-146"/>
<text text-anchor="middle" x="127.5" y="-130.8" font-family="Arial" font-size="14.00" fill="#cfffac">scripts/editor/AutoSpriteFromName.ts</text>
</g>
<!-- scripts/test/BattleTestConfig.ts -->
<g id="node7" class="node"><title>scripts/test/BattleTestConfig.ts</title>
<path fill="none" stroke="#c6c5fe" d="M225.333,-23C225.333,-23 29.6667,-23 29.6667,-23 25.8333,-23 22,-19.1667 22,-15.3333 22,-15.3333 22,-7.66667 22,-7.66667 22,-3.83333 25.8333,-0 29.6667,-0 29.6667,-0 225.333,-0 225.333,-0 229.167,-0 233,-3.83333 233,-7.66667 233,-7.66667 233,-15.3333 233,-15.3333 233,-19.1667 229.167,-23 225.333,-23"/>
<text text-anchor="middle" x="127.5" y="-7.8" font-family="Arial" font-size="14.00" fill="#c6c5fe">scripts/test/BattleTestConfig.ts</text>
</g>
<!-- scripts/test/BattleTestConfig.ts&#45;&gt;scripts/BattlePageManager.ts -->
<g id="edge3" class="edge"><title>scripts/test/BattleTestConfig.ts&#45;&gt;scripts/BattlePageManager.ts</title>
<path fill="none" stroke="#757575" d="M233.001,-11.5C248.6,-11.5 264.725,-11.5 280.444,-11.5"/>
<polygon fill="#757575" stroke="#757575" points="280.705,-15.0001 290.705,-11.5 280.705,-8.0001 280.705,-15.0001"/>
</g>
</g>
</svg>
