<?xml version="1.0" encoding="UTF-8" standalone="no"?>
<!DOCTYPE svg PUBLIC "-//W3C//DTD SVG 1.1//EN"
 "http://www.w3.org/Graphics/SVG/1.1/DTD/svg11.dtd">
<!-- Generated by graphviz version 2.38.0 (20140413.2041)
 -->
<!-- Title: G Pages: 1 -->
<svg width="1125pt" height="225pt"
 viewBox="0.00 0.00 1125.20 225.20" xmlns="http://www.w3.org/2000/svg" xmlns:xlink="http://www.w3.org/1999/xlink">
<g id="graph0" class="graph" transform="scale(1 1) rotate(0) translate(21.6 203.6)">
<title>G</title>
<polygon fill="#111111" stroke="none" points="-21.6,21.6 -21.6,-203.6 1103.6,-203.6 1103.6,21.6 -21.6,21.6"/>
<!-- scripts/BattlePageManager.ts -->
<g id="node1" class="node"><title>scripts/BattlePageManager.ts</title>
<path fill="none" stroke="#c6c5fe" d="M510.833,-104C510.833,-104 324.167,-104 324.167,-104 320.333,-104 316.5,-100.167 316.5,-96.3333 316.5,-96.3333 316.5,-88.6667 316.5,-88.6667 316.5,-84.8333 320.333,-81 324.167,-81 324.167,-81 510.833,-81 510.833,-81 514.667,-81 518.5,-84.8333 518.5,-88.6667 518.5,-88.6667 518.5,-96.3333 518.5,-96.3333 518.5,-100.167 514.667,-104 510.833,-104"/>
<text text-anchor="middle" x="417.5" y="-88.8" font-family="Arial" font-size="14.00" fill="#c6c5fe">scripts/BattlePageManager.ts</text>
</g>
<!-- scripts/data/HeroRegistry.ts -->
<g id="node2" class="node"><title>scripts/data/HeroRegistry.ts</title>
<path fill="none" stroke="#cfffac" d="M1070.83,-144C1070.83,-144 895.167,-144 895.167,-144 891.333,-144 887.5,-140.167 887.5,-136.333 887.5,-136.333 887.5,-128.667 887.5,-128.667 887.5,-124.833 891.333,-121 895.167,-121 895.167,-121 1070.83,-121 1070.83,-121 1074.67,-121 1078.5,-124.833 1078.5,-128.667 1078.5,-128.667 1078.5,-136.333 1078.5,-136.333 1078.5,-140.167 1074.67,-144 1070.83,-144"/>
<text text-anchor="middle" x="983" y="-128.8" font-family="Arial" font-size="14.00" fill="#cfffac">scripts/data/HeroRegistry.ts</text>
</g>
<!-- scripts/BattlePageManager.ts&#45;&gt;scripts/data/HeroRegistry.ts -->
<g id="edge1" class="edge"><title>scripts/BattlePageManager.ts&#45;&gt;scripts/data/HeroRegistry.ts</title>
<path fill="none" stroke="#757575" d="M518.838,-101.541C539.08,-103.269 560.216,-105.003 580,-106.5 680.818,-114.129 795.968,-121.433 877.112,-126.346"/>
<polygon fill="#757575" stroke="#757575" points="877.14,-129.854 887.333,-126.963 877.562,-122.867 877.14,-129.854"/>
</g>
<!-- scripts/data/PlayerData.ts -->
<g id="node3" class="node"><title>scripts/data/PlayerData.ts</title>
<path fill="none" stroke="#c6c5fe" d="M794.833,-64C794.833,-64 633.167,-64 633.167,-64 629.333,-64 625.5,-60.1667 625.5,-56.3333 625.5,-56.3333 625.5,-48.6667 625.5,-48.6667 625.5,-44.8333 629.333,-41 633.167,-41 633.167,-41 794.833,-41 794.833,-41 798.667,-41 802.5,-44.8333 802.5,-48.6667 802.5,-48.6667 802.5,-56.3333 802.5,-56.3333 802.5,-60.1667 798.667,-64 794.833,-64"/>
<text text-anchor="middle" x="714" y="-48.8" font-family="Arial" font-size="14.00" fill="#c6c5fe">scripts/data/PlayerData.ts</text>
</g>
<!-- scripts/BattlePageManager.ts&#45;&gt;scripts/data/PlayerData.ts -->
<g id="edge2" class="edge"><title>scripts/BattlePageManager.ts&#45;&gt;scripts/data/PlayerData.ts</title>
<path fill="none" stroke="#757575" d="M503.286,-80.984C539.166,-76.1108 581.118,-70.4126 618.033,-65.3987"/>
<polygon fill="#757575" stroke="#757575" points="618.864,-68.8181 628.302,-64.0039 617.922,-61.8818 618.864,-68.8181"/>
</g>
<!-- scripts/data/StageRegistry.ts -->
<g id="node4" class="node"><title>scripts/data/StageRegistry.ts</title>
<path fill="none" stroke="#cfffac" d="M1074.33,-103C1074.33,-103 891.667,-103 891.667,-103 887.833,-103 884,-99.1667 884,-95.3333 884,-95.3333 884,-87.6667 884,-87.6667 884,-83.8333 887.833,-80 891.667,-80 891.667,-80 1074.33,-80 1074.33,-80 1078.17,-80 1082,-83.8333 1082,-87.6667 1082,-87.6667 1082,-95.3333 1082,-95.3333 1082,-99.1667 1078.17,-103 1074.33,-103"/>
<text text-anchor="middle" x="983" y="-87.8" font-family="Arial" font-size="14.00" fill="#cfffac">scripts/data/StageRegistry.ts</text>
</g>
<!-- scripts/BattlePageManager.ts&#45;&gt;scripts/data/StageRegistry.ts -->
<g id="edge3" class="edge"><title>scripts/BattlePageManager.ts&#45;&gt;scripts/data/StageRegistry.ts</title>
<path fill="none" stroke="#757575" d="M518.593,-92.3224C618.373,-92.1453 771.141,-91.8742 873.707,-91.6922"/>
<polygon fill="#757575" stroke="#757575" points="873.789,-95.1921 883.783,-91.6743 873.777,-88.1921 873.789,-95.1921"/>
</g>
<!-- scripts/组件/HeroController.ts -->
<g id="node5" class="node"><title>scripts/组件/HeroController.ts</title>
<path fill="none" stroke="#c6c5fe" d="M805.833,-182C805.833,-182 622.167,-182 622.167,-182 618.333,-182 614.5,-178.167 614.5,-174.333 614.5,-174.333 614.5,-166.667 614.5,-166.667 614.5,-162.833 618.333,-159 622.167,-159 622.167,-159 805.833,-159 805.833,-159 809.667,-159 813.5,-162.833 813.5,-166.667 813.5,-166.667 813.5,-174.333 813.5,-174.333 813.5,-178.167 809.667,-182 805.833,-182"/>
<text text-anchor="middle" x="714" y="-166.8" font-family="Arial" font-size="14.00" fill="#c6c5fe">scripts/组件/HeroController.ts</text>
</g>
<!-- scripts/BattlePageManager.ts&#45;&gt;scripts/组件/HeroController.ts -->
<g id="edge4" class="edge"><title>scripts/BattlePageManager.ts&#45;&gt;scripts/组件/HeroController.ts</title>
<path fill="none" stroke="#757575" d="M518.349,-104.017C527.22,-106.581 535.899,-109.703 544,-113.5 563.118,-122.462 561.006,-135.278 580,-144.5 589.723,-149.22 600.238,-153.084 610.95,-156.246"/>
<polygon fill="#757575" stroke="#757575" points="610.255,-159.685 620.825,-158.957 612.108,-152.934 610.255,-159.685"/>
</g>
<!-- scripts/data/PlayerData.ts&#45;&gt;scripts/data/HeroRegistry.ts -->
<g id="edge9" class="edge"><title>scripts/data/PlayerData.ts&#45;&gt;scripts/data/HeroRegistry.ts</title>
<path fill="none" stroke="#757575" d="M744.559,-64.0829C778.016,-76.8953 834.33,-97.5666 884,-111.5 893.139,-114.064 902.833,-116.488 912.431,-118.717"/>
<polygon fill="#757575" stroke="#757575" points="911.844,-122.173 922.37,-120.966 913.389,-115.345 911.844,-122.173"/>
</g>
<!-- scripts/data/PlayerData.ts&#45;&gt;scripts/data/StageRegistry.ts -->
<g id="edge11" class="edge"><title>scripts/data/PlayerData.ts&#45;&gt;scripts/data/StageRegistry.ts</title>
<path fill="none" stroke="#757575" d="M794.025,-64.043C825.106,-68.583 860.943,-73.8175 892.936,-78.4907"/>
<polygon fill="#757575" stroke="#757575" points="892.777,-82.0045 903.178,-79.9866 893.789,-75.078 892.777,-82.0045"/>
</g>
<!-- scripts/data/PlayerStorage.ts -->
<g id="node10" class="node"><title>scripts/data/PlayerStorage.ts</title>
<path fill="none" stroke="#cfffac" d="M1074.33,-62C1074.33,-62 891.667,-62 891.667,-62 887.833,-62 884,-58.1667 884,-54.3333 884,-54.3333 884,-46.6667 884,-46.6667 884,-42.8333 887.833,-39 891.667,-39 891.667,-39 1074.33,-39 1074.33,-39 1078.17,-39 1082,-42.8333 1082,-46.6667 1082,-46.6667 1082,-54.3333 1082,-54.3333 1082,-58.1667 1078.17,-62 1074.33,-62"/>
<text text-anchor="middle" x="983" y="-46.8" font-family="Arial" font-size="14.00" fill="#cfffac">scripts/data/PlayerStorage.ts</text>
</g>
<!-- scripts/data/PlayerData.ts&#45;&gt;scripts/data/PlayerStorage.ts -->
<g id="edge10" class="edge"><title>scripts/data/PlayerData.ts&#45;&gt;scripts/data/PlayerStorage.ts</title>
<path fill="none" stroke="#757575" d="M802.796,-51.8424C825.537,-51.672 850.292,-51.4866 873.94,-51.3094"/>
<polygon fill="#757575" stroke="#757575" points="874.025,-54.809 883.998,-51.2341 873.972,-47.8092 874.025,-54.809"/>
</g>
<!-- scripts/组件/HeroController.ts&#45;&gt;scripts/data/HeroRegistry.ts -->
<g id="edge13" class="edge"><title>scripts/组件/HeroController.ts&#45;&gt;scripts/data/HeroRegistry.ts</title>
<path fill="none" stroke="#757575" d="M795.833,-158.996C825.887,-154.718 860.182,-149.837 891.079,-145.44"/>
<polygon fill="#757575" stroke="#757575" points="891.574,-148.905 900.981,-144.031 890.588,-141.975 891.574,-148.905"/>
</g>
<!-- scripts/BlackShop/BlackShop.ts -->
<g id="node6" class="node"><title>scripts/BlackShop/BlackShop.ts</title>
<path fill="none" stroke="#c6c5fe" d="M518.833,-23C518.833,-23 316.167,-23 316.167,-23 312.333,-23 308.5,-19.1667 308.5,-15.3333 308.5,-15.3333 308.5,-7.66667 308.5,-7.66667 308.5,-3.83333 312.333,-0 316.167,-0 316.167,-0 518.833,-0 518.833,-0 522.667,-0 526.5,-3.83333 526.5,-7.66667 526.5,-7.66667 526.5,-15.3333 526.5,-15.3333 526.5,-19.1667 522.667,-23 518.833,-23"/>
<text text-anchor="middle" x="417.5" y="-7.8" font-family="Arial" font-size="14.00" fill="#c6c5fe">scripts/BlackShop/BlackShop.ts</text>
</g>
<!-- scripts/BlackShop/BlackShopStorage.ts -->
<g id="node7" class="node"><title>scripts/BlackShop/BlackShopStorage.ts</title>
<path fill="none" stroke="#cfffac" d="M840.333,-23C840.333,-23 587.667,-23 587.667,-23 583.833,-23 580,-19.1667 580,-15.3333 580,-15.3333 580,-7.66667 580,-7.66667 580,-3.83333 583.833,-0 587.667,-0 587.667,-0 840.333,-0 840.333,-0 844.167,-0 848,-3.83333 848,-7.66667 848,-7.66667 848,-15.3333 848,-15.3333 848,-19.1667 844.167,-23 840.333,-23"/>
<text text-anchor="middle" x="714" y="-7.8" font-family="Arial" font-size="14.00" fill="#cfffac">scripts/BlackShop/BlackShopStorage.ts</text>
</g>
<!-- scripts/BlackShop/BlackShop.ts&#45;&gt;scripts/BlackShop/BlackShopStorage.ts -->
<g id="edge5" class="edge"><title>scripts/BlackShop/BlackShop.ts&#45;&gt;scripts/BlackShop/BlackShopStorage.ts</title>
<path fill="none" stroke="#757575" d="M526.906,-11.5C540.764,-11.5 555.115,-11.5 569.421,-11.5"/>
<polygon fill="#757575" stroke="#757575" points="569.821,-15.0001 579.821,-11.5 569.821,-8.0001 569.821,-15.0001"/>
</g>
<!-- scripts/HomePageRouter.ts -->
<g id="node8" class="node"><title>scripts/HomePageRouter.ts</title>
<path fill="none" stroke="#c6c5fe" d="M215.833,-64C215.833,-64 39.1667,-64 39.1667,-64 35.3333,-64 31.5,-60.1667 31.5,-56.3333 31.5,-56.3333 31.5,-48.6667 31.5,-48.6667 31.5,-44.8333 35.3333,-41 39.1667,-41 39.1667,-41 215.833,-41 215.833,-41 219.667,-41 223.5,-44.8333 223.5,-48.6667 223.5,-48.6667 223.5,-56.3333 223.5,-56.3333 223.5,-60.1667 219.667,-64 215.833,-64"/>
<text text-anchor="middle" x="127.5" y="-48.8" font-family="Arial" font-size="14.00" fill="#c6c5fe">scripts/HomePageRouter.ts</text>
</g>
<!-- scripts/HomePageRouter.ts&#45;&gt;scripts/BattlePageManager.ts -->
<g id="edge6" class="edge"><title>scripts/HomePageRouter.ts&#45;&gt;scripts/BattlePageManager.ts</title>
<path fill="none" stroke="#757575" d="M211.415,-64.016C246.502,-68.8892 287.529,-74.5874 323.629,-79.6013"/>
<polygon fill="#757575" stroke="#757575" points="323.285,-83.087 333.672,-80.9961 324.248,-76.1536 323.285,-83.087"/>
</g>
<!-- scripts/HomePageRouter.ts&#45;&gt;scripts/data/PlayerData.ts -->
<g id="edge8" class="edge"><title>scripts/HomePageRouter.ts&#45;&gt;scripts/data/PlayerData.ts</title>
<path fill="none" stroke="#757575" d="M223.711,-52.5C331.513,-52.5 506.267,-52.5 615.148,-52.5"/>
<polygon fill="#757575" stroke="#757575" points="615.475,-56.0001 625.475,-52.5 615.475,-49.0001 615.475,-56.0001"/>
</g>
<!-- scripts/HomePageRouter.ts&#45;&gt;scripts/BlackShop/BlackShop.ts -->
<g id="edge7" class="edge"><title>scripts/HomePageRouter.ts&#45;&gt;scripts/BlackShop/BlackShop.ts</title>
<path fill="none" stroke="#757575" d="M209.49,-40.9701C245.532,-35.8391 288.134,-29.7743 325.293,-24.4844"/>
<polygon fill="#757575" stroke="#757575" points="326.212,-27.8889 335.619,-23.0143 325.225,-20.9587 326.212,-27.8889"/>
</g>
<!-- scripts/Palette.ts -->
<g id="node9" class="node"><title>scripts/Palette.ts</title>
<path fill="none" stroke="#cfffac" d="M180.833,-105C180.833,-105 74.1667,-105 74.1667,-105 70.3333,-105 66.5,-101.167 66.5,-97.3333 66.5,-97.3333 66.5,-89.6667 66.5,-89.6667 66.5,-85.8333 70.3333,-82 74.1667,-82 74.1667,-82 180.833,-82 180.833,-82 184.667,-82 188.5,-85.8333 188.5,-89.6667 188.5,-89.6667 188.5,-97.3333 188.5,-97.3333 188.5,-101.167 184.667,-105 180.833,-105"/>
<text text-anchor="middle" x="127.5" y="-89.8" font-family="Arial" font-size="14.00" fill="#cfffac">scripts/Palette.ts</text>
</g>
<!-- scripts/editor/AutoSpriteFromName.ts -->
<g id="node11" class="node"><title>scripts/editor/AutoSpriteFromName.ts</title>
<path fill="none" stroke="#c6c5fe" d="M247.333,-146C247.333,-146 7.66667,-146 7.66667,-146 3.83333,-146 0,-142.167 0,-138.333 0,-138.333 0,-130.667 0,-130.667 0,-126.833 3.83333,-123 7.66667,-123 7.66667,-123 247.333,-123 247.333,-123 251.167,-123 255,-126.833 255,-130.667 255,-130.667 255,-138.333 255,-138.333 255,-142.167 251.167,-146 247.333,-146"/>
<text text-anchor="middle" x="127.5" y="-130.8" font-family="Arial" font-size="14.00" fill="#c6c5fe">scripts/editor/AutoSpriteFromName.ts</text>
</g>
<!-- scripts/组件/DynamicShadowScaler.ts -->
<g id="node12" class="node"><title>scripts/组件/DynamicShadowScaler.ts</title>
<path fill="none" stroke="#cfffac" d="M536.333,-146C536.333,-146 298.667,-146 298.667,-146 294.833,-146 291,-142.167 291,-138.333 291,-138.333 291,-130.667 291,-130.667 291,-126.833 294.833,-123 298.667,-123 298.667,-123 536.333,-123 536.333,-123 540.167,-123 544,-126.833 544,-130.667 544,-130.667 544,-138.333 544,-138.333 544,-142.167 540.167,-146 536.333,-146"/>
<text text-anchor="middle" x="417.5" y="-130.8" font-family="Arial" font-size="14.00" fill="#cfffac">scripts/组件/DynamicShadowScaler.ts</text>
</g>
<!-- scripts/editor/AutoSpriteFromName.ts&#45;&gt;scripts/组件/DynamicShadowScaler.ts -->
<g id="edge12" class="edge"><title>scripts/editor/AutoSpriteFromName.ts&#45;&gt;scripts/组件/DynamicShadowScaler.ts</title>
<path fill="none" stroke="#757575" d="M255.24,-134.5C263.609,-134.5 272.056,-134.5 280.467,-134.5"/>
<polygon fill="#757575" stroke="#757575" points="280.701,-138 290.701,-134.5 280.701,-131 280.701,-138"/>
</g>
</g>
</svg>
