<?xml version="1.0" encoding="UTF-8" standalone="no"?>
<!DOCTYPE svg PUBLIC "-//W3C//DTD SVG 1.1//EN"
 "http://www.w3.org/Graphics/SVG/1.1/DTD/svg11.dtd">
<!-- Generated by graphviz version 2.38.0 (20140413.2041)
 -->
<!-- Title: G Pages: 1 -->
<svg width="770pt" height="127pt"
 viewBox="0.00 0.00 770.20 127.20" xmlns="http://www.w3.org/2000/svg" xmlns:xlink="http://www.w3.org/1999/xlink">
<g id="graph0" class="graph" transform="scale(1 1) rotate(0) translate(21.6 105.6)">
<title>G</title>
<polygon fill="#111111" stroke="none" points="-21.6,21.6 -21.6,-105.6 748.6,-105.6 748.6,21.6 -21.6,21.6"/>
<!-- scripts/BattlePageManager.ts -->
<g id="node1" class="node"><title>scripts/BattlePageManager.ts</title>
<path fill="none" stroke="#c6c5fe" d="M485.333,-64C485.333,-64 298.667,-64 298.667,-64 294.833,-64 291,-60.1667 291,-56.3333 291,-56.3333 291,-48.6667 291,-48.6667 291,-44.8333 294.833,-41 298.667,-41 298.667,-41 485.333,-41 485.333,-41 489.167,-41 493,-44.8333 493,-48.6667 493,-48.6667 493,-56.3333 493,-56.3333 493,-60.1667 489.167,-64 485.333,-64"/>
<text text-anchor="middle" x="392" y="-48.8" font-family="Arial" font-size="14.00" fill="#c6c5fe">scripts/BattlePageManager.ts</text>
</g>
<!-- scripts/data/HeroRegistry.ts -->
<g id="node2" class="node"><title>scripts/data/HeroRegistry.ts</title>
<path fill="none" stroke="#cfffac" d="M715.833,-64C715.833,-64 540.167,-64 540.167,-64 536.333,-64 532.5,-60.1667 532.5,-56.3333 532.5,-56.3333 532.5,-48.6667 532.5,-48.6667 532.5,-44.8333 536.333,-41 540.167,-41 540.167,-41 715.833,-41 715.833,-41 719.667,-41 723.5,-44.8333 723.5,-48.6667 723.5,-48.6667 723.5,-56.3333 723.5,-56.3333 723.5,-60.1667 719.667,-64 715.833,-64"/>
<text text-anchor="middle" x="628" y="-48.8" font-family="Arial" font-size="14.00" fill="#cfffac">scripts/data/HeroRegistry.ts</text>
</g>
<!-- scripts/BattlePageManager.ts&#45;&gt;scripts/data/HeroRegistry.ts -->
<g id="edge1" class="edge"><title>scripts/BattlePageManager.ts&#45;&gt;scripts/data/HeroRegistry.ts</title>
<path fill="none" stroke="#757575" d="M493.255,-52.5C502.729,-52.5 512.353,-52.5 521.871,-52.5"/>
<polygon fill="#757575" stroke="#757575" points="522.145,-56.0001 532.145,-52.5 522.145,-49.0001 522.145,-56.0001"/>
</g>
<!-- scripts/data/StageRegistry.ts -->
<g id="node3" class="node"><title>scripts/data/StageRegistry.ts</title>
<path fill="none" stroke="#cfffac" d="M719.333,-23C719.333,-23 536.667,-23 536.667,-23 532.833,-23 529,-19.1667 529,-15.3333 529,-15.3333 529,-7.66667 529,-7.66667 529,-3.83333 532.833,-0 536.667,-0 536.667,-0 719.333,-0 719.333,-0 723.167,-0 727,-3.83333 727,-7.66667 727,-7.66667 727,-15.3333 727,-15.3333 727,-19.1667 723.167,-23 719.333,-23"/>
<text text-anchor="middle" x="628" y="-7.8" font-family="Arial" font-size="14.00" fill="#cfffac">scripts/data/StageRegistry.ts</text>
</g>
<!-- scripts/BattlePageManager.ts&#45;&gt;scripts/data/StageRegistry.ts -->
<g id="edge2" class="edge"><title>scripts/BattlePageManager.ts&#45;&gt;scripts/data/StageRegistry.ts</title>
<path fill="none" stroke="#757575" d="M458.805,-40.9701C487.588,-35.9268 521.521,-29.9814 551.342,-24.7563"/>
<polygon fill="#757575" stroke="#757575" points="552.038,-28.1877 561.284,-23.0143 550.83,-21.2928 552.038,-28.1877"/>
</g>
<!-- scripts/HomePageRouter.ts -->
<g id="node4" class="node"><title>scripts/HomePageRouter.ts</title>
<path fill="none" stroke="#c6c5fe" d="M215.833,-43C215.833,-43 39.1667,-43 39.1667,-43 35.3333,-43 31.5,-39.1667 31.5,-35.3333 31.5,-35.3333 31.5,-27.6667 31.5,-27.6667 31.5,-23.8333 35.3333,-20 39.1667,-20 39.1667,-20 215.833,-20 215.833,-20 219.667,-20 223.5,-23.8333 223.5,-27.6667 223.5,-27.6667 223.5,-35.3333 223.5,-35.3333 223.5,-39.1667 219.667,-43 215.833,-43"/>
<text text-anchor="middle" x="127.5" y="-27.8" font-family="Arial" font-size="14.00" fill="#c6c5fe">scripts/HomePageRouter.ts</text>
</g>
<!-- scripts/HomePageRouter.ts&#45;&gt;scripts/BattlePageManager.ts -->
<g id="edge3" class="edge"><title>scripts/HomePageRouter.ts&#45;&gt;scripts/BattlePageManager.ts</title>
<path fill="none" stroke="#757575" d="M223.64,-39.1112C242.171,-40.5937 261.744,-42.1595 280.717,-43.6773"/>
<polygon fill="#757575" stroke="#757575" points="280.631,-47.1816 290.879,-44.4903 281.19,-40.2039 280.631,-47.1816"/>
</g>
<!-- scripts/data/PlayerData.ts -->
<g id="node5" class="node"><title>scripts/data/PlayerData.ts</title>
<path fill="none" stroke="#c6c5fe" d="M472.833,-23C472.833,-23 311.167,-23 311.167,-23 307.333,-23 303.5,-19.1667 303.5,-15.3333 303.5,-15.3333 303.5,-7.66667 303.5,-7.66667 303.5,-3.83333 307.333,-0 311.167,-0 311.167,-0 472.833,-0 472.833,-0 476.667,-0 480.5,-3.83333 480.5,-7.66667 480.5,-7.66667 480.5,-15.3333 480.5,-15.3333 480.5,-19.1667 476.667,-23 472.833,-23"/>
<text text-anchor="middle" x="392" y="-7.8" font-family="Arial" font-size="14.00" fill="#c6c5fe">scripts/data/PlayerData.ts</text>
</g>
<!-- scripts/HomePageRouter.ts&#45;&gt;scripts/data/PlayerData.ts -->
<g id="edge4" class="edge"><title>scripts/HomePageRouter.ts&#45;&gt;scripts/data/PlayerData.ts</title>
<path fill="none" stroke="#757575" d="M223.64,-24.2513C246.262,-22.5276 270.437,-20.6858 293.177,-18.9532"/>
<polygon fill="#757575" stroke="#757575" points="293.463,-22.4416 303.169,-18.1919 292.932,-15.4618 293.463,-22.4416"/>
</g>
<!-- scripts/data/PlayerData.ts&#45;&gt;scripts/data/HeroRegistry.ts -->
<g id="edge5" class="edge"><title>scripts/data/PlayerData.ts&#45;&gt;scripts/data/HeroRegistry.ts</title>
<path fill="none" stroke="#757575" d="M458.805,-23.0299C487.588,-28.0732 521.521,-34.0186 551.342,-39.2437"/>
<polygon fill="#757575" stroke="#757575" points="550.83,-42.7072 561.284,-40.9857 552.038,-35.8123 550.83,-42.7072"/>
</g>
<!-- scripts/data/PlayerData.ts&#45;&gt;scripts/data/StageRegistry.ts -->
<g id="edge6" class="edge"><title>scripts/data/PlayerData.ts&#45;&gt;scripts/data/StageRegistry.ts</title>
<path fill="none" stroke="#757575" d="M480.799,-11.5C493.181,-11.5 506.028,-11.5 518.738,-11.5"/>
<polygon fill="#757575" stroke="#757575" points="518.89,-15.0001 528.89,-11.5 518.89,-8.0001 518.89,-15.0001"/>
</g>
<!-- scripts/editor/AutoSpriteFromName.ts -->
<g id="node6" class="node"><title>scripts/editor/AutoSpriteFromName.ts</title>
<path fill="none" stroke="#cfffac" d="M247.333,-84C247.333,-84 7.66667,-84 7.66667,-84 3.83333,-84 0,-80.1667 0,-76.3333 0,-76.3333 0,-68.6667 0,-68.6667 0,-64.8333 3.83333,-61 7.66667,-61 7.66667,-61 247.333,-61 247.333,-61 251.167,-61 255,-64.8333 255,-68.6667 255,-68.6667 255,-76.3333 255,-76.3333 255,-80.1667 251.167,-84 247.333,-84"/>
<text text-anchor="middle" x="127.5" y="-68.8" font-family="Arial" font-size="14.00" fill="#cfffac">scripts/editor/AutoSpriteFromName.ts</text>
</g>
</g>
</svg>
