<?xml version="1.0" encoding="UTF-8" standalone="no"?>
<!DOCTYPE svg PUBLIC "-//W3C//DTD SVG 1.1//EN"
 "http://www.w3.org/Graphics/SVG/1.1/DTD/svg11.dtd">
<!-- Generated by graphviz version 2.38.0 (20140413.2041)
 -->
<!-- Title: G Pages: 1 -->
<svg width="1353pt" height="294pt"
 viewBox="0.00 0.00 1353.20 293.60" xmlns="http://www.w3.org/2000/svg" xmlns:xlink="http://www.w3.org/1999/xlink">
<g id="graph0" class="graph" transform="scale(1 1) rotate(0) translate(21.6 271.995)">
<title>G</title>
<polygon fill="#111111" stroke="none" points="-21.6,21.6 -21.6,-271.995 1331.6,-271.995 1331.6,21.6 -21.6,21.6"/>
<!-- scripts/BattlePageManager.ts -->
<g id="node1" class="node"><title>scripts/BattlePageManager.ts</title>
<path fill="none" stroke="#c6c5fe" d="M510.833,-104C510.833,-104 324.167,-104 324.167,-104 320.333,-104 316.5,-100.167 316.5,-96.3333 316.5,-96.3333 316.5,-88.6667 316.5,-88.6667 316.5,-84.8333 320.333,-81 324.167,-81 324.167,-81 510.833,-81 510.833,-81 514.667,-81 518.5,-84.8333 518.5,-88.6667 518.5,-88.6667 518.5,-96.3333 518.5,-96.3333 518.5,-100.167 514.667,-104 510.833,-104"/>
<text text-anchor="middle" x="417.5" y="-88.8" font-family="Arial" font-size="14.00" fill="#c6c5fe">scripts/BattlePageManager.ts</text>
</g>
<!-- scripts/data/HeroRegistry.ts -->
<g id="node2" class="node"><title>scripts/data/HeroRegistry.ts</title>
<path fill="none" stroke="#cfffac" d="M1302.33,-164C1302.33,-164 1126.67,-164 1126.67,-164 1122.83,-164 1119,-160.167 1119,-156.333 1119,-156.333 1119,-148.667 1119,-148.667 1119,-144.833 1122.83,-141 1126.67,-141 1126.67,-141 1302.33,-141 1302.33,-141 1306.17,-141 1310,-144.833 1310,-148.667 1310,-148.667 1310,-156.333 1310,-156.333 1310,-160.167 1306.17,-164 1302.33,-164"/>
<text text-anchor="middle" x="1214.5" y="-148.8" font-family="Arial" font-size="14.00" fill="#cfffac">scripts/data/HeroRegistry.ts</text>
</g>
<!-- scripts/BattlePageManager.ts&#45;&gt;scripts/data/HeroRegistry.ts -->
<g id="edge1" class="edge"><title>scripts/BattlePageManager.ts&#45;&gt;scripts/data/HeroRegistry.ts</title>
<path fill="none" stroke="#757575" d="M518.572,-99.8326C527.696,-103.212 536.362,-107.668 544,-113.5 574.347,-136.67 547.839,-170.922 580,-191.5 774.895,-316.2 1076.27,-210.099 1178.33,-167.919"/>
<polygon fill="#757575" stroke="#757575" points="1179.71,-171.139 1187.58,-164.047 1177,-164.682 1179.71,-171.139"/>
</g>
<!-- scripts/data/PlayerData.ts -->
<g id="node3" class="node"><title>scripts/data/PlayerData.ts</title>
<path fill="none" stroke="#c6c5fe" d="M794.833,-64C794.833,-64 633.167,-64 633.167,-64 629.333,-64 625.5,-60.1667 625.5,-56.3333 625.5,-56.3333 625.5,-48.6667 625.5,-48.6667 625.5,-44.8333 629.333,-41 633.167,-41 633.167,-41 794.833,-41 794.833,-41 798.667,-41 802.5,-44.8333 802.5,-48.6667 802.5,-48.6667 802.5,-56.3333 802.5,-56.3333 802.5,-60.1667 798.667,-64 794.833,-64"/>
<text text-anchor="middle" x="714" y="-48.8" font-family="Arial" font-size="14.00" fill="#c6c5fe">scripts/data/PlayerData.ts</text>
</g>
<!-- scripts/BattlePageManager.ts&#45;&gt;scripts/data/PlayerData.ts -->
<g id="edge2" class="edge"><title>scripts/BattlePageManager.ts&#45;&gt;scripts/data/PlayerData.ts</title>
<path fill="none" stroke="#757575" d="M503.286,-80.984C539.166,-76.1108 581.118,-70.4126 618.033,-65.3987"/>
<polygon fill="#757575" stroke="#757575" points="618.864,-68.8181 628.302,-64.0039 617.922,-61.8818 618.864,-68.8181"/>
</g>
<!-- scripts/data/StageRegistry.ts -->
<g id="node4" class="node"><title>scripts/data/StageRegistry.ts</title>
<path fill="none" stroke="#cfffac" d="M1074.83,-105C1074.83,-105 892.167,-105 892.167,-105 888.333,-105 884.5,-101.167 884.5,-97.3333 884.5,-97.3333 884.5,-89.6667 884.5,-89.6667 884.5,-85.8333 888.333,-82 892.167,-82 892.167,-82 1074.83,-82 1074.83,-82 1078.67,-82 1082.5,-85.8333 1082.5,-89.6667 1082.5,-89.6667 1082.5,-97.3333 1082.5,-97.3333 1082.5,-101.167 1078.67,-105 1074.83,-105"/>
<text text-anchor="middle" x="983.5" y="-89.8" font-family="Arial" font-size="14.00" fill="#cfffac">scripts/data/StageRegistry.ts</text>
</g>
<!-- scripts/BattlePageManager.ts&#45;&gt;scripts/data/StageRegistry.ts -->
<g id="edge3" class="edge"><title>scripts/BattlePageManager.ts&#45;&gt;scripts/data/StageRegistry.ts</title>
<path fill="none" stroke="#757575" d="M518.682,-92.6776C618.55,-92.8547 771.453,-93.1258 874.111,-93.3078"/>
<polygon fill="#757575" stroke="#757575" points="874.19,-96.8079 884.196,-93.3257 874.202,-89.8079 874.19,-96.8079"/>
</g>
<!-- scripts/组件/DamageManager.ts -->
<g id="node5" class="node"><title>scripts/组件/DamageManager.ts</title>
<path fill="none" stroke="#c6c5fe" d="M813.833,-182C813.833,-182 614.167,-182 614.167,-182 610.333,-182 606.5,-178.167 606.5,-174.333 606.5,-174.333 606.5,-166.667 606.5,-166.667 606.5,-162.833 610.333,-159 614.167,-159 614.167,-159 813.833,-159 813.833,-159 817.667,-159 821.5,-162.833 821.5,-166.667 821.5,-166.667 821.5,-174.333 821.5,-174.333 821.5,-178.167 817.667,-182 813.833,-182"/>
<text text-anchor="middle" x="714" y="-166.8" font-family="Arial" font-size="14.00" fill="#c6c5fe">scripts/组件/DamageManager.ts</text>
</g>
<!-- scripts/BattlePageManager.ts&#45;&gt;scripts/组件/DamageManager.ts -->
<g id="edge4" class="edge"><title>scripts/BattlePageManager.ts&#45;&gt;scripts/组件/DamageManager.ts</title>
<path fill="none" stroke="#757575" d="M518.349,-104.017C527.22,-106.581 535.899,-109.703 544,-113.5 563.118,-122.462 561.006,-135.278 580,-144.5 589.723,-149.22 600.238,-153.084 610.95,-156.246"/>
<polygon fill="#757575" stroke="#757575" points="610.255,-159.685 620.825,-158.957 612.108,-152.934 610.255,-159.685"/>
</g>
<!-- scripts/组件/HeroController.ts -->
<g id="node6" class="node"><title>scripts/组件/HeroController.ts</title>
<path fill="none" stroke="#c6c5fe" d="M1075.33,-164C1075.33,-164 891.667,-164 891.667,-164 887.833,-164 884,-160.167 884,-156.333 884,-156.333 884,-148.667 884,-148.667 884,-144.833 887.833,-141 891.667,-141 891.667,-141 1075.33,-141 1075.33,-141 1079.17,-141 1083,-144.833 1083,-148.667 1083,-148.667 1083,-156.333 1083,-156.333 1083,-160.167 1079.17,-164 1075.33,-164"/>
<text text-anchor="middle" x="983.5" y="-148.8" font-family="Arial" font-size="14.00" fill="#c6c5fe">scripts/组件/HeroController.ts</text>
</g>
<!-- scripts/BattlePageManager.ts&#45;&gt;scripts/组件/HeroController.ts -->
<g id="edge5" class="edge"><title>scripts/BattlePageManager.ts&#45;&gt;scripts/组件/HeroController.ts</title>
<path fill="none" stroke="#757575" d="M518.682,-103.158C618.397,-113.766 770.985,-129.998 873.639,-140.919"/>
<polygon fill="#757575" stroke="#757575" points="873.41,-144.414 883.724,-141.992 874.15,-137.454 873.41,-144.414"/>
</g>
<!-- scripts/data/PlayerData.ts&#45;&gt;scripts/data/HeroRegistry.ts -->
<g id="edge10" class="edge"><title>scripts/data/PlayerData.ts&#45;&gt;scripts/data/HeroRegistry.ts</title>
<path fill="none" stroke="#757575" d="M789.318,-40.9906C881.093,-28.0312 1031.39,-11.2569 1083,-31.5 1134.91,-51.8617 1178.48,-103.648 1199.68,-132.434"/>
<polygon fill="#757575" stroke="#757575" points="1197.08,-134.818 1205.76,-140.902 1202.77,-130.737 1197.08,-134.818"/>
</g>
<!-- scripts/data/PlayerData.ts&#45;&gt;scripts/data/StageRegistry.ts -->
<g id="edge12" class="edge"><title>scripts/data/PlayerData.ts&#45;&gt;scripts/data/StageRegistry.ts</title>
<path fill="none" stroke="#757575" d="M790.226,-64.0299C823.559,-69.1389 862.933,-75.1739 897.342,-80.4478"/>
<polygon fill="#757575" stroke="#757575" points="896.961,-83.9302 907.376,-81.9857 898.022,-77.011 896.961,-83.9302"/>
</g>
<!-- scripts/data/PlayerStorage.ts -->
<g id="node11" class="node"><title>scripts/data/PlayerStorage.ts</title>
<path fill="none" stroke="#cfffac" d="M1074.83,-64C1074.83,-64 892.167,-64 892.167,-64 888.333,-64 884.5,-60.1667 884.5,-56.3333 884.5,-56.3333 884.5,-48.6667 884.5,-48.6667 884.5,-44.8333 888.333,-41 892.167,-41 892.167,-41 1074.83,-41 1074.83,-41 1078.67,-41 1082.5,-44.8333 1082.5,-48.6667 1082.5,-48.6667 1082.5,-56.3333 1082.5,-56.3333 1082.5,-60.1667 1078.67,-64 1074.83,-64"/>
<text text-anchor="middle" x="983.5" y="-48.8" font-family="Arial" font-size="14.00" fill="#cfffac">scripts/data/PlayerStorage.ts</text>
</g>
<!-- scripts/data/PlayerData.ts&#45;&gt;scripts/data/PlayerStorage.ts -->
<g id="edge11" class="edge"><title>scripts/data/PlayerData.ts&#45;&gt;scripts/data/PlayerStorage.ts</title>
<path fill="none" stroke="#757575" d="M802.59,-52.5C825.388,-52.5 850.226,-52.5 873.965,-52.5"/>
<polygon fill="#757575" stroke="#757575" points="874.062,-56.0001 884.062,-52.5 874.062,-49.0001 874.062,-56.0001"/>
</g>
<!-- scripts/组件/DamageManager.ts&#45;&gt;scripts/组件/HeroController.ts -->
<g id="edge14" class="edge"><title>scripts/组件/DamageManager.ts&#45;&gt;scripts/组件/HeroController.ts</title>
<path fill="none" stroke="#757575" d="M821.876,-163.308C838.907,-162.162 856.545,-160.975 873.622,-159.826"/>
<polygon fill="#757575" stroke="#757575" points="873.86,-163.318 883.602,-159.155 873.39,-156.334 873.86,-163.318"/>
</g>
<!-- scripts/组件/HeroController.ts&#45;&gt;scripts/data/HeroRegistry.ts -->
<g id="edge15" class="edge"><title>scripts/组件/HeroController.ts&#45;&gt;scripts/data/HeroRegistry.ts</title>
<path fill="none" stroke="#757575" d="M1083.28,-152.5C1091.63,-152.5 1100.09,-152.5 1108.48,-152.5"/>
<polygon fill="#757575" stroke="#757575" points="1108.67,-156 1118.67,-152.5 1108.67,-149 1108.67,-156"/>
</g>
<!-- scripts/BlackShop/BlackShop.ts -->
<g id="node7" class="node"><title>scripts/BlackShop/BlackShop.ts</title>
<path fill="none" stroke="#c6c5fe" d="M518.833,-23C518.833,-23 316.167,-23 316.167,-23 312.333,-23 308.5,-19.1667 308.5,-15.3333 308.5,-15.3333 308.5,-7.66667 308.5,-7.66667 308.5,-3.83333 312.333,-0 316.167,-0 316.167,-0 518.833,-0 518.833,-0 522.667,-0 526.5,-3.83333 526.5,-7.66667 526.5,-7.66667 526.5,-15.3333 526.5,-15.3333 526.5,-19.1667 522.667,-23 518.833,-23"/>
<text text-anchor="middle" x="417.5" y="-7.8" font-family="Arial" font-size="14.00" fill="#c6c5fe">scripts/BlackShop/BlackShop.ts</text>
</g>
<!-- scripts/BlackShop/BlackShopStorage.ts -->
<g id="node8" class="node"><title>scripts/BlackShop/BlackShopStorage.ts</title>
<path fill="none" stroke="#cfffac" d="M840.333,-23C840.333,-23 587.667,-23 587.667,-23 583.833,-23 580,-19.1667 580,-15.3333 580,-15.3333 580,-7.66667 580,-7.66667 580,-3.83333 583.833,-0 587.667,-0 587.667,-0 840.333,-0 840.333,-0 844.167,-0 848,-3.83333 848,-7.66667 848,-7.66667 848,-15.3333 848,-15.3333 848,-19.1667 844.167,-23 840.333,-23"/>
<text text-anchor="middle" x="714" y="-7.8" font-family="Arial" font-size="14.00" fill="#cfffac">scripts/BlackShop/BlackShopStorage.ts</text>
</g>
<!-- scripts/BlackShop/BlackShop.ts&#45;&gt;scripts/BlackShop/BlackShopStorage.ts -->
<g id="edge6" class="edge"><title>scripts/BlackShop/BlackShop.ts&#45;&gt;scripts/BlackShop/BlackShopStorage.ts</title>
<path fill="none" stroke="#757575" d="M526.906,-11.5C540.764,-11.5 555.115,-11.5 569.421,-11.5"/>
<polygon fill="#757575" stroke="#757575" points="569.821,-15.0001 579.821,-11.5 569.821,-8.0001 569.821,-15.0001"/>
</g>
<!-- scripts/HomePageRouter.ts -->
<g id="node9" class="node"><title>scripts/HomePageRouter.ts</title>
<path fill="none" stroke="#c6c5fe" d="M215.833,-64C215.833,-64 39.1667,-64 39.1667,-64 35.3333,-64 31.5,-60.1667 31.5,-56.3333 31.5,-56.3333 31.5,-48.6667 31.5,-48.6667 31.5,-44.8333 35.3333,-41 39.1667,-41 39.1667,-41 215.833,-41 215.833,-41 219.667,-41 223.5,-44.8333 223.5,-48.6667 223.5,-48.6667 223.5,-56.3333 223.5,-56.3333 223.5,-60.1667 219.667,-64 215.833,-64"/>
<text text-anchor="middle" x="127.5" y="-48.8" font-family="Arial" font-size="14.00" fill="#c6c5fe">scripts/HomePageRouter.ts</text>
</g>
<!-- scripts/HomePageRouter.ts&#45;&gt;scripts/BattlePageManager.ts -->
<g id="edge7" class="edge"><title>scripts/HomePageRouter.ts&#45;&gt;scripts/BattlePageManager.ts</title>
<path fill="none" stroke="#757575" d="M211.415,-64.016C246.502,-68.8892 287.529,-74.5874 323.629,-79.6013"/>
<polygon fill="#757575" stroke="#757575" points="323.285,-83.087 333.672,-80.9961 324.248,-76.1536 323.285,-83.087"/>
</g>
<!-- scripts/HomePageRouter.ts&#45;&gt;scripts/data/PlayerData.ts -->
<g id="edge9" class="edge"><title>scripts/HomePageRouter.ts&#45;&gt;scripts/data/PlayerData.ts</title>
<path fill="none" stroke="#757575" d="M223.711,-52.5C331.513,-52.5 506.267,-52.5 615.148,-52.5"/>
<polygon fill="#757575" stroke="#757575" points="615.475,-56.0001 625.475,-52.5 615.475,-49.0001 615.475,-56.0001"/>
</g>
<!-- scripts/HomePageRouter.ts&#45;&gt;scripts/BlackShop/BlackShop.ts -->
<g id="edge8" class="edge"><title>scripts/HomePageRouter.ts&#45;&gt;scripts/BlackShop/BlackShop.ts</title>
<path fill="none" stroke="#757575" d="M209.49,-40.9701C245.532,-35.8391 288.134,-29.7743 325.293,-24.4844"/>
<polygon fill="#757575" stroke="#757575" points="326.212,-27.8889 335.619,-23.0143 325.225,-20.9587 326.212,-27.8889"/>
</g>
<!-- scripts/Palette.ts -->
<g id="node10" class="node"><title>scripts/Palette.ts</title>
<path fill="none" stroke="#cfffac" d="M180.833,-105C180.833,-105 74.1667,-105 74.1667,-105 70.3333,-105 66.5,-101.167 66.5,-97.3333 66.5,-97.3333 66.5,-89.6667 66.5,-89.6667 66.5,-85.8333 70.3333,-82 74.1667,-82 74.1667,-82 180.833,-82 180.833,-82 184.667,-82 188.5,-85.8333 188.5,-89.6667 188.5,-89.6667 188.5,-97.3333 188.5,-97.3333 188.5,-101.167 184.667,-105 180.833,-105"/>
<text text-anchor="middle" x="127.5" y="-89.8" font-family="Arial" font-size="14.00" fill="#cfffac">scripts/Palette.ts</text>
</g>
<!-- scripts/editor/AutoSpriteFromName.ts -->
<g id="node12" class="node"><title>scripts/editor/AutoSpriteFromName.ts</title>
<path fill="none" stroke="#c6c5fe" d="M247.333,-146C247.333,-146 7.66667,-146 7.66667,-146 3.83333,-146 0,-142.167 0,-138.333 0,-138.333 0,-130.667 0,-130.667 0,-126.833 3.83333,-123 7.66667,-123 7.66667,-123 247.333,-123 247.333,-123 251.167,-123 255,-126.833 255,-130.667 255,-130.667 255,-138.333 255,-138.333 255,-142.167 251.167,-146 247.333,-146"/>
<text text-anchor="middle" x="127.5" y="-130.8" font-family="Arial" font-size="14.00" fill="#c6c5fe">scripts/editor/AutoSpriteFromName.ts</text>
</g>
<!-- scripts/组件/DynamicShadowScaler.ts -->
<g id="node13" class="node"><title>scripts/组件/DynamicShadowScaler.ts</title>
<path fill="none" stroke="#cfffac" d="M536.333,-146C536.333,-146 298.667,-146 298.667,-146 294.833,-146 291,-142.167 291,-138.333 291,-138.333 291,-130.667 291,-130.667 291,-126.833 294.833,-123 298.667,-123 298.667,-123 536.333,-123 536.333,-123 540.167,-123 544,-126.833 544,-130.667 544,-130.667 544,-138.333 544,-138.333 544,-142.167 540.167,-146 536.333,-146"/>
<text text-anchor="middle" x="417.5" y="-130.8" font-family="Arial" font-size="14.00" fill="#cfffac">scripts/组件/DynamicShadowScaler.ts</text>
</g>
<!-- scripts/editor/AutoSpriteFromName.ts&#45;&gt;scripts/组件/DynamicShadowScaler.ts -->
<g id="edge13" class="edge"><title>scripts/editor/AutoSpriteFromName.ts&#45;&gt;scripts/组件/DynamicShadowScaler.ts</title>
<path fill="none" stroke="#757575" d="M255.24,-134.5C263.609,-134.5 272.056,-134.5 280.467,-134.5"/>
<polygon fill="#757575" stroke="#757575" points="280.701,-138 290.701,-134.5 280.701,-131 280.701,-138"/>
</g>
</g>
</svg>
