<?xml version="1.0" encoding="UTF-8" standalone="no"?>
<!DOCTYPE svg PUBLIC "-//W3C//DTD SVG 1.1//EN"
 "http://www.w3.org/Graphics/SVG/1.1/DTD/svg11.dtd">
<!-- Generated by graphviz version 2.38.0 (20140413.2041)
 -->
<!-- Title: G Pages: 1 -->
<svg width="763pt" height="127pt"
 viewBox="0.00 0.00 763.20 127.20" xmlns="http://www.w3.org/2000/svg" xmlns:xlink="http://www.w3.org/1999/xlink">
<g id="graph0" class="graph" transform="scale(1 1) rotate(0) translate(21.6 105.6)">
<title>G</title>
<polygon fill="#111111" stroke="none" points="-21.6,21.6 -21.6,-105.6 741.6,-105.6 741.6,21.6 -21.6,21.6"/>
<!-- scripts/BattlePageManager.ts -->
<g id="node1" class="node"><title>scripts/BattlePageManager.ts</title>
<path fill="none" stroke="#c6c5fe" d="M485.333,-64C485.333,-64 298.667,-64 298.667,-64 294.833,-64 291,-60.1667 291,-56.3333 291,-56.3333 291,-48.6667 291,-48.6667 291,-44.8333 294.833,-41 298.667,-41 298.667,-41 485.333,-41 485.333,-41 489.167,-41 493,-44.8333 493,-48.6667 493,-48.6667 493,-56.3333 493,-56.3333 493,-60.1667 489.167,-64 485.333,-64"/>
<text text-anchor="middle" x="392" y="-48.8" font-family="Arial" font-size="14.00" fill="#c6c5fe">scripts/BattlePageManager.ts</text>
</g>
<!-- scripts/data/HeroRegistry.ts -->
<g id="node2" class="node"><title>scripts/data/HeroRegistry.ts</title>
<path fill="none" stroke="#cfffac" d="M712.333,-43C712.333,-43 536.667,-43 536.667,-43 532.833,-43 529,-39.1667 529,-35.3333 529,-35.3333 529,-27.6667 529,-27.6667 529,-23.8333 532.833,-20 536.667,-20 536.667,-20 712.333,-20 712.333,-20 716.167,-20 720,-23.8333 720,-27.6667 720,-27.6667 720,-35.3333 720,-35.3333 720,-39.1667 716.167,-43 712.333,-43"/>
<text text-anchor="middle" x="624.5" y="-27.8" font-family="Arial" font-size="14.00" fill="#cfffac">scripts/data/HeroRegistry.ts</text>
</g>
<!-- scripts/BattlePageManager.ts&#45;&gt;scripts/data/HeroRegistry.ts -->
<g id="edge1" class="edge"><title>scripts/BattlePageManager.ts&#45;&gt;scripts/data/HeroRegistry.ts</title>
<path fill="none" stroke="#757575" d="M493.095,-43.3807C501.653,-42.601 510.324,-41.811 518.916,-41.0283"/>
<polygon fill="#757575" stroke="#757575" points="519.312,-44.5068 528.953,-40.1138 518.677,-37.5356 519.312,-44.5068"/>
</g>
<!-- scripts/HomePageRouter.ts -->
<g id="node3" class="node"><title>scripts/HomePageRouter.ts</title>
<path fill="none" stroke="#c6c5fe" d="M215.833,-43C215.833,-43 39.1667,-43 39.1667,-43 35.3333,-43 31.5,-39.1667 31.5,-35.3333 31.5,-35.3333 31.5,-27.6667 31.5,-27.6667 31.5,-23.8333 35.3333,-20 39.1667,-20 39.1667,-20 215.833,-20 215.833,-20 219.667,-20 223.5,-23.8333 223.5,-27.6667 223.5,-27.6667 223.5,-35.3333 223.5,-35.3333 223.5,-39.1667 219.667,-43 215.833,-43"/>
<text text-anchor="middle" x="127.5" y="-27.8" font-family="Arial" font-size="14.00" fill="#c6c5fe">scripts/HomePageRouter.ts</text>
</g>
<!-- scripts/HomePageRouter.ts&#45;&gt;scripts/BattlePageManager.ts -->
<g id="edge2" class="edge"><title>scripts/HomePageRouter.ts&#45;&gt;scripts/BattlePageManager.ts</title>
<path fill="none" stroke="#757575" d="M223.64,-39.1112C242.171,-40.5937 261.744,-42.1595 280.717,-43.6773"/>
<polygon fill="#757575" stroke="#757575" points="280.631,-47.1816 290.879,-44.4903 281.19,-40.2039 280.631,-47.1816"/>
</g>
<!-- scripts/data/PlayerData.ts -->
<g id="node4" class="node"><title>scripts/data/PlayerData.ts</title>
<path fill="none" stroke="#c6c5fe" d="M472.833,-23C472.833,-23 311.167,-23 311.167,-23 307.333,-23 303.5,-19.1667 303.5,-15.3333 303.5,-15.3333 303.5,-7.66667 303.5,-7.66667 303.5,-3.83333 307.333,-0 311.167,-0 311.167,-0 472.833,-0 472.833,-0 476.667,-0 480.5,-3.83333 480.5,-7.66667 480.5,-7.66667 480.5,-15.3333 480.5,-15.3333 480.5,-19.1667 476.667,-23 472.833,-23"/>
<text text-anchor="middle" x="392" y="-7.8" font-family="Arial" font-size="14.00" fill="#c6c5fe">scripts/data/PlayerData.ts</text>
</g>
<!-- scripts/HomePageRouter.ts&#45;&gt;scripts/data/PlayerData.ts -->
<g id="edge3" class="edge"><title>scripts/HomePageRouter.ts&#45;&gt;scripts/data/PlayerData.ts</title>
<path fill="none" stroke="#757575" d="M223.64,-24.2513C246.262,-22.5276 270.437,-20.6858 293.177,-18.9532"/>
<polygon fill="#757575" stroke="#757575" points="293.463,-22.4416 303.169,-18.1919 292.932,-15.4618 293.463,-22.4416"/>
</g>
<!-- scripts/data/PlayerData.ts&#45;&gt;scripts/data/HeroRegistry.ts -->
<g id="edge4" class="edge"><title>scripts/data/PlayerData.ts&#45;&gt;scripts/data/HeroRegistry.ts</title>
<path fill="none" stroke="#757575" d="M480.8,-19.1182C493.147,-20.1896 505.942,-21.2997 518.569,-22.3954"/>
<polygon fill="#757575" stroke="#757575" points="518.384,-25.8923 528.649,-23.27 518.989,-18.9185 518.384,-25.8923"/>
</g>
<!-- scripts/editor/AutoSpriteFromName.ts -->
<g id="node5" class="node"><title>scripts/editor/AutoSpriteFromName.ts</title>
<path fill="none" stroke="#cfffac" d="M247.333,-84C247.333,-84 7.66667,-84 7.66667,-84 3.83333,-84 0,-80.1667 0,-76.3333 0,-76.3333 0,-68.6667 0,-68.6667 0,-64.8333 3.83333,-61 7.66667,-61 7.66667,-61 247.333,-61 247.333,-61 251.167,-61 255,-64.8333 255,-68.6667 255,-68.6667 255,-76.3333 255,-76.3333 255,-80.1667 251.167,-84 247.333,-84"/>
<text text-anchor="middle" x="127.5" y="-68.8" font-family="Arial" font-size="14.00" fill="#cfffac">scripts/editor/AutoSpriteFromName.ts</text>
</g>
</g>
</svg>
